Coordinates
version=1
nRows=17
nColumns=24
inDegrees=yes

Units are S.I. units (second, meters, Newtons, ...)
Angles are in degrees.

endheader
time	pelvis_tilt	pelvis_list	pelvis_rotation	pelvis_tx	pelvis_ty	pelvis_tz	hip_flexion_r	hip_adduction_r	hip_rotation_r	knee_angle_r	ankle_angle_r	subtalar_angle_r	mtp_angle_r	hip_flexion_l	hip_adduction_l	hip_rotation_l	knee_angle_l	ankle_angle_l	subtalar_angle_l	mtp_angle_l	lumbar_extension	lumbar_bending	lumbar_rotation
      1.42083333	      0.51323780	      1.58274641	     -3.20814505	      0.52729401	      1.08994108	      0.27082548	     13.34508391	     -5.27730193	     -7.33863192	    -60.43458338	      4.31731014	     -5.48290362	      4.63478375	      5.30485384	      4.12262777	      0.22129617	    -12.07253536	      6.84770939	      1.34482145	      2.13225559	    -11.54361422	     -4.09897961	     -1.87314538
      1.42500000	      0.54250952	      1.48544036	     -3.08810642	      0.53218438	      1.09062126	      0.27034570	     13.72130083	     -5.15738680	     -7.46167425	    -59.77463782	      4.63207132	     -5.22373973	      4.75325453	      4.78265023	      4.06376762	      0.40239620	    -11.65842531	      6.87148100	      1.30334891	      2.13052248	    -11.57629480	     -3.93832182	     -2.13062327
      1.42916667	      0.50440743	      1.36529192	     -2.98361813	      0.53709952	      1.09116093	      0.26991825	     14.16243967	     -4.99403453	     -7.56156311	    -59.07983022	      4.89247035	     -5.13588718	      4.79430405	      4.34985387	      3.96332477	      0.48358024	    -11.27981646	      6.88171646	      1.37126239	      2.12980153	    -11.52287185	     -3.74147879	     -2.18555493
      1.43333333	      0.49244719	      1.24600427	     -2.85798260	      0.54197418	      1.09168731	      0.26945316	     14.55888175	     -4.84213269	     -7.68123806	    -58.34633034	      5.16228812	     -4.97634478	      4.85818453	      3.89845569	      3.86927361	      0.62294493	    -10.91843319	      6.91657895	      1.37361736	      2.12850081	    -11.50616020	     -3.57085003	     -2.34658164
      1.43750000	      0.49015662	      1.16446979	     -2.74573810	      0.54684026	      1.09215177	      0.26900604	     14.95334002	     -4.73935208	     -7.79723701	    -57.61707723	      5.41309180	     -4.86823319	      4.95420325	      3.42012092	      3.81981952	      0.79633922	    -10.51504177	      6.94550885	      1.32078838	      2.12441476	    -11.49855167	     -3.40205899	     -2.57335768
      1.44166667	      0.44234243	      1.06496240	     -2.64548050	      0.55170941	      1.09250542	      0.26861071	     15.38642680	     -4.60046649	     -7.88790547	    -56.85346645	      5.65870382	     -4.85087962	      4.98464315	      3.01296733	      3.73634685	      0.87442150	    -10.15629531	      6.97411621	      1.38887398	      2.12357517	    -11.43636257	     -3.23802687	     -2.61881399
      1.44583333	      0.42079462	      0.95618349	     -2.51819069	      0.55655030	      1.09287181	      0.26817020	     15.76751345	     -4.46165452	     -8.00430845	    -56.04091481	      5.87703161	     -4.79761751	      5.03508373	      2.58889217	      3.64808042	      1.01435266	     -9.82289476	      7.01851785	      1.36850328	      2.12088069	    -11.41158385	     -3.07167455	     -2.77495136
      1.45000000	      0.38763007	      0.87721100	     -2.40543218	      0.56138495	      1.09312432	      0.26775473	     16.17020393	     -4.35889367	     -8.11113021	    -55.23853311	      6.07814927	     -4.79698041	      5.10616599	      2.16342218	      3.59293389	      1.18686442	     -9.45297492	      7.06868154	      1.31121180	      2.11603726	    -11.36832971	     -2.91275351	     -2.98446926
      1.45416667	      0.36107913	      0.78600697	     -2.29820873	      0.56619068	      1.09336498	      0.26738444	     16.55115597	     -4.23208103	     -8.20064858	    -54.39531801	      6.29059731	     -4.82683109	      5.14480500	      1.75362190	      3.51605109	      1.28841000	     -9.12914323	      7.11371594	      1.32815672	      2.11340411	    -11.34088986	     -2.77065229	     -3.06642055
      1.45833333	      0.31153217	      0.71667977	     -2.20630731	      0.57100174	      1.09349010	      0.26704118	     16.96173201	     -4.12883791	     -8.27241548	    -53.55628311	      6.50375262	     -4.88000180	      5.16248385	      1.36647372	      3.46017014	      1.37490955	     -8.79788362	      7.18442321	      1.37960082	      2.11311451	    -11.28515679	     -2.63940844	     -3.12446307
      1.46250000	      0.26528642	      0.62467256	     -2.08655121	      0.57578981	      1.09360388	      0.26667164	     17.33967886	     -4.00145992	     -8.36190887	    -52.65875913	      6.66113149	     -4.96124173	      5.18520445	      0.99516787	      3.37966486	      1.50744731	     -8.50952206	      7.25405978	      1.35493760	      2.11077533	    -11.23426218	     -2.49188813	     -3.26043495
      1.46666667	      0.24197814	      0.55834949	     -1.98450732	      0.58056098	      1.09368849	      0.26632738	     17.69812387	     -3.90492451	     -8.43721753	    -51.76476391	      6.79596147	     -5.08406556	      5.21263422	      0.58087812	      3.32989458	      1.66627745	     -8.17644070	      7.32849632	      1.29682896	      2.10633433	    -11.20974051	     -2.36167649	     -3.43508824
      1.47083333	      0.17163728	      0.49849771	     -1.88722737	      0.58532756	      1.09362859	      0.26603465	     18.10221967	     -3.80619301	     -8.49457456	    -50.86020354	      6.98354503	     -5.18696180	      5.22549622	      0.24462128	      3.27750220	      1.76413238	     -7.89977018	      7.40159491	      1.30432817	      2.10427438	    -11.13862109	     -2.25866385	     -3.50662874
      1.47500000	      0.14252659	      0.43688594	     -1.79015462	      0.59007930	      1.09361055	      0.26573926	     18.44874071	     -3.70649661	     -8.54879916	    -49.92599903	      7.09435806	     -5.35364130	      5.23524367	     -0.14795077	      3.22633844	      1.90004266	     -7.59749589	      7.49406801	      1.27267884	      2.10056673	    -11.11057301	     -2.14328979	     -3.63637706
      1.47916667	      0.09025201	      0.38946653	     -1.69725942	      0.59481452	      1.09348538	      0.26547519	     18.81731077	     -3.61890618	     -8.58862778	    -48.98667619	      7.26324500	     -5.48191230	      5.23755369	     -0.49364543	      3.18460638	      1.99126964	     -7.33878846	      7.58252144	      1.28775167	      2.09932841	    -11.06538580	     -2.05315815	     -3.69641594
      1.48333333	      0.03645662	      0.34277907	     -1.60663703	      0.59955270	      1.09332511	      0.26523182	     19.17664855	     -3.52835566	     -8.62036064	    -48.02419229	      7.37450582	     -5.66256536	      5.23379541	     -0.84036334	      3.14268009	      2.09905686	     -7.07548109	      7.68529046	      1.28332681	      2.09801045	    -11.01412130	     -1.96150923	     -3.78161103
      1.48750000	      0.01078214	      0.30012341	     -1.51961127	      0.60426748	      1.09316194	      0.26500646	     19.49747164	     -3.44084286	     -8.64443130	    -47.04686066	      7.47837397	     -5.85072285	      5.22544626	     -1.21559651	      3.10397636	      2.20408221	     -6.81355985	      7.79201108	      1.27880396	      2.09679976	    -11.00016960	     -1.87733139	     -3.86775546
